<?xml version="1.0" encoding="UTF-8"?>
<svg id="Layer_5" data-name="Layer 5" xmlns="http://www.w3.org/2000/svg" width = "88.81" height = "69.45" viewBox="0 0 898.86 702.95">
  <defs>
    <style>
      .cls-1 {
        fill: #fff;
      }

      .cls-2 {
        fill: #98d1e1;
      }

      .cls-3 {
        fill: #c62390;
      }
    </style>
  </defs>
  <path class="cls-2" d="M325.36,689.88c1.93,0,1.93-3,0-3s-1.93,3,0,3h0Z"/>
  <path class="cls-2" d="M149.53,619.19c11.94,43.89,63.52,85.19,115,73,44.74-10.6,63.78-55.52,66-61,34.59-89.94,36.77-116.52,29.5-120.5-8.08-4.42-30.35,17.87-30.2,17.71,4.55-4.74,11.84-10.92,18.34-9.18,4.3,1.15,8.49,5.84,13.86,33.47,6.76,34.77,8.05,68.17,8.05,68.17,0,0-2.77,31.05,18.52,55.32,18.55,21.15,42.67,25.01,49.93,26.01,40.92,5.63,84.96-20.62,102.49-55.5,16.35-32.51,1.47-145.11,6-109,0,0-15-24-15-24,6.06,20.3,18.62,53.04,45.66,85.29,17.7,21.11,35.74,42.62,66.34,51.71,38.94,11.57,97.81,2.89,116-37,9.03-19.8,2.93-40.97-4-65,0,0-4.78-16.59-36-74-7.97-3.96-9.79-4.35-10-4-1.51,2.49,62.36,66.91,123,56,24.33-4.38,46.21-20.54,57.34-41.54,19.65-37.08,1.94-81.96-20.34-105.46,0,0-14.49-15.29-35-23-78.49-29.52-674.72,60.68-733,69.58l-69,15.42c-5.73,1.34-15.04,4.41-22.15,12.27-20.66,22.85-10.43,72.58,18.15,95.73,3.47,2.81,16.2,12.51,38,15,69.6,7.94,128.99-69.3,137-80,5.33-2.33,10.67-4.67,16-7-5.33,2.33-10.67,4.67-16,7-11.29,9.67-28.95,27.36-41.5,54.5-7.83,16.92-21.89,47.34-13,80Z"/>
  <path class="cls-3" d="M443.53,.19c-27.29-.01-71.98,3.39-122,24-73.54,30.29-114.7,79.64-126,94-17.84,22.68-62.82,81.19-64,166-.24,17.35-.48,55.15,17,94,57,96,175.93,129.04,213,135,160.39,25.77,349.45-64.65,372-180,.37-1.89,.93-5.43,1.41-8.79,9.56-66.74-8.28-120.48-14.41-137.21-14.58-39.84-35.6-69.06-52-88,0,0-54.26-66.9-143.02-89.94-5.44-1.41-9.86-2.39-12.98-3.06C484.15,.1,459.91-.41,443.53,.19Z"/>
  <path class="cls-3" d="M147.53,380.19c-14.41,.93-32.43,3.77-52,11-5.81,2.15-19.82,7.66-36,18-8.07,5.16-17.79,11.45-28,22-6.95,7.18-18.34,18.14-22,31-9.58,33.68,16.19,79.07,54,91,25.92,8.18,50.6-2.54,61-7,18.43-7.9,32.59-21.68,37-26,17.66-17.3,26.71-35.52,36-33,3.09,.84,4.75,3.57,5,4,5.03,8.58-8.1,21.06-22,48-4.39,8.51-8.75,16.88-12,28-3.08,10.52-8.53,29.14-4,47,8.38,33.04,47.86,51.42,77,55,9.39,1.15,25.76,3.16,43-5,25.58-12.11,35.62-38.85,44-61,7.32-19.35,9.99-36.63,11-49,.24-3.84,1.72-24.1,12-33,1.63-1.41,4.8-4.15,9-4,4.38,.16,7.44,3.37,9,5,9.66,10.11,8.27,31.62,8,35.2v37.25c-.22,3.35-.38,8.18,0,13.97,.74,11.28,2.81,43.58,26,64.58,28.03,25.38,67.79,16.96,72,16,8.11-2.1,23.72-7.35,38-21,4.19-4,17.53-17.08,23-38,6.09-23.31-1.12-40.31,0-76.52,.18-5.85,1.11-17.58,8.35-21.32,.52-.27,2.78-1.38,5.65-1.16,12.48,.92,15.73,25.16,41,62,0,0,.01,.02,.01,.02,.55,.8,20.78,30.19,35.82,38.77,42.94,24.5,94.17,1.21,94.17,1.21,0,0,47-15,29-76s-56-69-51-98c1.06-1.63,2.85-3.83,5.67-4.92,10.93-4.25,24.07,13.26,43.33,28.92,13.39,10.89,44.16,35.91,78,32,15.78-1.82,26.85-9.38,30.6-12,31.79-22.27,42.72-70.38,27.78-105.5-9.24-21.71-26.01-32.91-40.38-42.5-40.98-27.36-85.23-29.83-110.59-28.79"/>
  <path d="M475.17,370.21c-.99,12.05-6.21,24.59-17.51,30.43-1.54,.8-2.78,1.3-4.49,1.83-1.82,.57-3.15,.81-5.02,.74-1.75-.07-2.67-.18-4.35-.56-.75-.17-1.5-.38-2.23-.62-.28-.09-.57-.19-.85-.3-.18-.07-.37-.14-.55-.22,.39,.16-.07-.03-.22-.1-1.29-.6-2.51-1.32-3.67-2.14-.11-.08-.23-.16-.34-.25,.1,.07,.4,.33-.05-.04-.25-.2-.5-.41-.74-.62-.52-.45-1.02-.93-1.49-1.43s-.93-1.02-1.37-1.55c-.09-.11-.17-.22-.26-.32,.08,.1,.31,.42-.04-.05-.22-.3-.44-.6-.65-.91-.8-1.16-1.53-2.38-2.19-3.63-.36-.68-.7-1.36-1.02-2.06-.18-.39-.36-.79-.53-1.19-.14-.32,0,0,.02,.05-.09-.22-.18-.45-.27-.68-.6-1.5-1.14-3.03-1.63-4.57-1.01-3.16-1.82-6.38-2.59-9.61-.89-3.76-6.68-2.17-5.79,1.6,2.81,11.83,6.77,25.71,18.29,31.93,3.21,1.73,6.66,2.67,10.27,3.09,2.01,.23,4.19,.4,6.17-.05s3.75-1.02,5.54-1.77c6.91-2.87,12.59-7.75,16.56-14.1,4.29-6.87,6.34-14.9,7-22.91,.13-1.62-1.47-3-3-3-1.73,0-2.87,1.38-3,3h0Z"/>
  <path d="M284.76,268.84c.01,.14,.02,.28,.03,.42-11.25,29.43,3.95,61.13,29.19,69.07,21.38,6.73,46.82-4.59,58.41-28.06,.04-.08,.08-.17,.12-.26,13.43-33.05-4.46-67.67-30.34-74.26-20.88-5.32-46.3,7.79-57.4,33.08Z"/>
  <path d="M506.55,284.67c.06,.13,.11,.26,.17,.38-.85,31.5,23.99,56.37,50.44,55.49,22.41-.74,42.65-19.85,45.81-45.84,.01-.09,.02-.19,.02-.28,1.72-35.64-26.64-62.36-53.24-60-21.47,1.91-41.1,22.69-43.19,50.24Z"/>
  <path class="cls-1" d="M346.65,253.89c-2.04,1.3-2.89,4.18-1.55,6.29,.63,.99,1.63,1.74,2.77,2.05,1.22,.33,2.8,.18,3.7-.8,.95-1.03,1.05-2.56,.83-3.87-.2-1.23-.9-2.33-1.91-3.06s-2.28-.91-3.42-.62c-1.26,.32-2.15,1.29-2.64,2.45-.21,.5-.36,1.01-.49,1.54-.17,.73-.3,1.48-.1,2.22,.32,1.15,1.31,1.86,2.36,2.31,.19,.08,.38,.16,.57,.24,.04,.02,.08,.03,.12,.05,.19,.08-.31-.14-.1-.04,.35,.16,.71,.32,1.07,.46,.67,.25,1.38,.3,2.08,.17,1.18-.23,2.28-1.18,2.79-2.25,.95-1.97,.56-4.37-.95-5.96s-4.02-1.8-5.97-.8-3.08,3.42-2.46,5.62c.32,1.12,1.08,2.2,2.15,2.71s2.25,.63,3.34,.22c.58-.22,1.12-.54,1.54-1.01,.52-.59,.62-1.55,0-2.12-.57-.52-1.57-.63-2.12,0-.06,.07-.12,.13-.18,.19-.21,.22,.29-.17,.03-.02-.07,.04-.15,.09-.22,.13-.21,.12,.08-.05,.12-.05-.06,0-.19,.06-.25,.08-.07,.02-.19,.02-.26,.06l.22-.03c-.06,0-.12,.01-.18,.01-.09,0-.18,0-.26,0h-.09c-.16-.02-.12-.02,.14,.01-.06-.04-.19-.04-.26-.06s-.14-.05-.21-.07c-.19-.04,.33,.18,.08,.03-.07-.04-.15-.09-.23-.13-.27-.15,.25,.25,.02,.02-.06-.06-.11-.11-.17-.16-.25-.27,.12,.22-.03-.02-.05-.08-.21-.46-.28-.49,.03,.01,.12,.35,.05,.1-.03-.09-.06-.18-.08-.27-.01-.06-.02-.24-.06-.28l.03,.21c0-.06-.01-.13-.01-.19,0-.16,.07-.43,.02-.57l-.03,.21c.01-.06,.02-.12,.04-.19,.02-.08,.04-.15,.06-.23,.02-.06,.08-.16,.08-.22l-.08,.2c.02-.05,.05-.1,.08-.15,.07-.13,.14-.24,.22-.36,.17-.26-.24,.26-.03,.04,.08-.08,.15-.17,.23-.24,.05-.05,.16-.11,.19-.17-.01,.02-.3,.21-.1,.08,.14-.09,.28-.19,.43-.27,.07-.03,.17-.06,.23-.11-.02,.02-.35,.13-.12,.05,.19-.06,.38-.13,.57-.17,.04,0,.12-.01,.17-.03-.31,.13-.25,.03-.06,.01,.17-.01,.34-.01,.51,0,.05,0,.12,.02,.17,.02-.39,.02-.22-.03-.07,0,.08,.02,.16,.04,.25,.06,.05,.02,.11,.03,.16,.05,.15,.06,.11,.04-.12-.05,.09,.09,.26,.13,.37,.2,.13,.08,.22,.23-.03-.04,.05,.05,.11,.09,.16,.14,.12,.1,.22,.22,.32,.33,.21,.23-.19-.3-.03-.04,.05,.07,.09,.14,.14,.21s.09,.15,.12,.22c.06,.12,.09,.33,0-.05,.03,.14,.1,.27,.14,.4,.05,.16,.06,.34,.11,.5-.12-.38-.03-.22-.02-.06,0,.08,0,.17,0,.25s0,.17,0,.25c-.01,.19-.12,.25,.01-.06-.05,.12-.06,.28-.1,.41-.02,.07-.08,.17-.08,.24l.09-.2c-.02,.05-.05,.1-.07,.15-.03,.07-.07,.13-.11,.19-.03,.04-.05,.09-.08,.13-.09,.13-.08,.11,.05-.06,0,.04-.18,.19-.2,.22l-.07,.07c-.12,.11-.1,.09,.07-.04-.02,.05-.42,.27-.42,.26l.18-.07c-.06,.02-.12,.04-.19,.06l-.09,.02c-.16,.03-.13,.03,.11,0,0,0-.21,0-.2,0-.15,0-.13,0,.07,.02-.08-.01-.15-.03-.23-.05-.11-.03-.22-.07-.33-.11-.36-.12,.19,.09-.03,0-.27-.13-.55-.24-.82-.35-.08-.03-.16-.07-.25-.1,.37,.14,.19,.08,.11,.04-.19-.09-.39-.17-.58-.28-.1-.06-.26-.21-.37-.23l.17,.13s-.09-.07-.13-.11l-.06-.06c-.1-.12-.08-.08,.08,.11,0-.04-.08-.15-.11-.18-.12-.15,.16,.36,.05,.08-.14-.36,.06,.31,0-.07,.01-.17,0-.16-.02,.05,.01-.08,.03-.16,.04-.23,.08-.38,.17-.75,.28-1.12,.03-.1,.09-.43,.17-.48l-.07,.17c.03-.06,.06-.12,.09-.18,.05-.1,.11-.2,.17-.3,.16-.25-.04,0-.03,.03-.01-.02,.19-.2,.2-.21,.22-.24-.27,.14,0,0,.07-.04,.13-.07,.2-.11,.17-.1-.36,.11-.07,.03,.09-.02,.17-.05,.26-.07,.31-.09-.36,0-.04,0,.09,0,.18,0,.27,0h.09c.16,.02,.12,.02-.12-.01,.04,.04,.21,.05,.27,.06,.04,0,.24,.1,.26,.09-.03,.01-.33-.17-.1-.04,.08,.05,.16,.09,.24,.14l.08,.05c.13,.09,.1,.07-.08-.07,0,.02,.19,.18,.21,.2l.07,.07c.1,.12,.09,.1-.05-.07,.08,0,.26,.44,.3,.51,.16,.29-.08-.24-.02-.04,.02,.08,.05,.16,.08,.24,.03,.1,.05,.19,.07,.29l.02,.1c.03,.17,.02,.13-.01-.1-.02,.19,.03,.41,.02,.6,0,.02-.02,.3-.02,.3,.03-.23,.04-.27,.01-.1,0,.05-.02,.1-.03,.15-.02,.09-.05,.17-.07,.26-.06,.16-.05,.14,.03-.06-.09,.14-.07,.13,.06-.04l-.07,.07c-.12,.11-.09,.09,.08-.05-.04,.03-.08,.05-.13,.07-.1,.05-.06,.03,.13-.05,0,.02-.27,.07-.29,.08-.17,.03-.13,.03,.11-.01-.06,0-.12,0-.19,.01-.06,0-.12,0-.19,0-.06,0-.12,0-.18-.01,.25,.04,.29,.04,.12,.01-.09-.02-.18-.04-.27-.07-.05-.02-.4-.16-.17-.05s-.04-.02-.07-.04c-.11-.06-.21-.13-.32-.19-.28-.17,.25,.23,0,0-.07-.06-.14-.12-.2-.19-.02-.02-.16-.21-.19-.21,.14,.18,.16,.21,.07,.08-.03-.05-.07-.1-.1-.16-.03-.05-.06-.11-.09-.16-.07-.14-.06-.11,.04,.1-.02-.06-.04-.12-.06-.18-.03-.09-.05-.18-.07-.27-.08-.29,.02,.36,0-.01,0-.08,0-.15,0-.23,0-.06,0-.12,0-.19,.02-.16,0-.12-.02,.12,.08-.13,.08-.38,.13-.54l.03-.09c.06-.15,.04-.12-.04,.1,.04-.01,.15-.28,.18-.33,.03-.05,.07-.1,.1-.16,.09-.13,.07-.1-.07,.08,.04-.05,.08-.09,.12-.14,.06-.07,.13-.13,.2-.19,.12-.1,.09-.08-.09,.06,.05-.04,.1-.07,.16-.1,.66-.42,.99-1.35,.54-2.05-.43-.66-1.34-.99-2.05-.54h0Z"/>
  <path class="cls-1" d="M348.26,257.42c-.02,1.28,.38,2.52,1.2,3.5l.3,.23c.17,.11,.36,.17,.56,.18,.31,.04,.69,0,.96-.18,.95-.64,1.35-1.72,1.37-2.83s-.4-2.11-1.1-2.94c-.28-.33-.64-.62-1.01-.84-.74-.44-1.61-.55-2.38-.13-.94,.51-1.32,1.77-1.24,2.77,.05,.66,.22,1.27,.55,1.85,.26,.47,.63,.89,.99,1.29,.52,.59,1.59,.57,2.12,0,.58-.63,.56-1.5,0-2.12-.15-.17-.3-.35-.45-.53l.23,.3c-.19-.25-.35-.51-.47-.8l.15,.36c-.08-.2-.14-.4-.17-.61l.05,.4c-.03-.23-.03-.46,0-.69l-.05,.4c.03-.16,.06-.32,.12-.47l-.15,.36c.04-.09,.08-.17,.14-.25l-.23,.3c.05-.06,.09-.11,.15-.16l-.3,.23s.07-.04,.1-.06l-.36,.15c.07-.03,.12-.04,.2-.05l-.4,.05s.09,0,.13,0l-.4-.05c.09,.02,.18,.04,.26,.08l-.36-.15c.18,.08,.35,.19,.51,.31l-.3-.23c.2,.16,.38,.33,.53,.54l-.23-.3c.14,.19,.25,.39,.35,.6l-.15-.36c.09,.22,.15,.44,.19,.68l-.05-.4c.04,.28,.04,.56,0,.84l.05-.4c-.03,.21-.08,.41-.16,.61l.15-.36c-.06,.13-.12,.24-.2,.35l.23-.3c-.05,.06-.1,.12-.16,.17l.3-.23s-.05,.04-.07,.05l1.82,.23s-.05-.06-.07-.09l.23,.3c-.15-.2-.27-.42-.37-.65l.15,.36c-.14-.34-.23-.69-.28-1.06l.05,.4c-.03-.21-.04-.43-.03-.64,.01-.78-.7-1.54-1.5-1.5s-1.48,.66-1.5,1.5h0Z"/>
  <path class="cls-1" d="M345.95,260.64l.31,1.62c.05,.2,.14,.37,.27,.51,.11,.16,.25,.29,.42,.39l.36,.15c.2,.06,.4,.07,.6,.03,.14,0,.26-.03,.38-.1,.19-.06,.35-.16,.48-.31,.27-.29,.44-.65,.44-1.06,0-.26,0-.52,0-.79,0-.21-.04-.4-.13-.58-.06-.19-.16-.35-.31-.48-.14-.15-.3-.25-.48-.31-.18-.09-.37-.14-.58-.13l-.4,.05c-.25,.07-.47,.2-.66,.39-.27,.29-.44,.65-.44,1.06,0,.26,0,.52,0,.79l2.95-.4-.31-1.62c-.05-.2-.14-.37-.27-.51-.11-.16-.25-.29-.42-.39-.17-.11-.36-.17-.56-.18-.2-.04-.4-.04-.6,.03-.36,.12-.71,.34-.9,.69l-.15,.36c-.07,.27-.07,.53,0,.8h0Z"/>
  <path class="cls-1" d="M569.31,255.21c-2.18,1.91-1.82,5.81,.72,7.24,1.14,.64,2.64,.8,3.87,.32,1.37-.53,2.47-1.6,2.79-3.07,.28-1.28,.07-2.72-.72-3.79-.83-1.13-2.11-1.84-3.54-1.76-1.22,.07-2.49,.58-3.3,1.52s-1.29,2.36-.82,3.63,1.6,2.27,2.94,2.6c.66,.16,1.37,.18,2.03,0,.81-.22,1.4-.71,1.9-1.36,.32-.42,.24-1.09,0-1.51-.71-1.25-1.78-2.32-3.05-3-.88-.47-1.89-.04-2.2,.9-.52,1.59-.25,3.51,.74,4.86,.24,.32,.49,.58,.9,.69,.36,.1,.84,.05,1.16-.15,.62-.4,1.04-1.38,.54-2.05-.19-.26-.35-.53-.47-.83l.15,.36c-.14-.35-.24-.7-.29-1.07l.05,.4c-.04-.37-.04-.74,0-1.11l-.05,.4c.04-.24,.09-.47,.17-.69l-2.2,.9c.26,.14,.5,.29,.74,.46,.21,.15-.22-.18-.08-.07,.05,.04,.1,.08,.15,.13,.11,.09,.22,.19,.32,.29,.09,.09,.19,.19,.27,.29s.36,.5,.09,.09c.16,.24,.33,.47,.48,.73v-1.51s.26-.31,.13-.18c-.02,.02-.05,.05-.07,.08s-.05,.05-.08,.07c-.15,.15,.3-.21,.16-.12-.12,.08-.24,.15-.37,.21l.36-.15c-.16,.06-.32,.1-.49,.13l.4-.05c-.22,.03-.45,.03-.67,0l.4,.05c-.27-.04-.52-.11-.77-.21l.36,.15c-.15-.06-.29-.14-.43-.22-.06-.04-.31-.22-.07-.04s0,0-.05-.05-.1-.1-.15-.15c-.03-.03-.06-.07-.09-.1-.1-.1,.22,.3,.14,.18-.09-.14-.17-.27-.24-.43l.15,.36c-.07-.16-.11-.33-.13-.5l.05,.4c-.02-.17-.02-.33,0-.5l-.05,.4c.03-.21,.08-.4,.16-.6l-.15,.36c.07-.16,.15-.3,.25-.44,.1-.16-.13,.17-.13,.17,.03-.02,.07-.08,.09-.11,.06-.06,.12-.12,.18-.18,.03-.03,.06-.05,.09-.08,.14-.13-.16,.12-.17,.13,.07-.03,.15-.1,.21-.15,.16-.1,.32-.18,.49-.26l-.36,.15c.27-.11,.55-.19,.84-.23l-.4,.05c.27-.03,.54-.03,.81,0l-.4-.05c.21,.03,.41,.09,.61,.16l-.36-.15c.14,.06,.28,.13,.41,.22,.29,.2-.23-.21-.05-.04,.06,.06,.13,.11,.19,.18s.11,.13,.17,.19c-.33-.36-.12-.16-.05-.04,.09,.15,.17,.3,.24,.46l-.15-.36c.11,.26,.18,.53,.22,.81l-.05-.4c.04,.3,.04,.6,0,.9l.05-.4c-.04,.28-.11,.54-.22,.8l.15-.36c-.07,.16-.16,.3-.25,.45-.13,.22,.25-.29,.08-.1-.06,.06-.12,.13-.18,.19-.02,.02-.18,.18-.19,.17,.01,0,.36-.26,.09-.08-.14,.1-.3,.18-.46,.25l.36-.15c-.28,.12-.58,.2-.88,.24l.4-.05c-.28,.03-.57,.03-.85,0l.4,.05c-.28-.04-.55-.11-.82-.22l.36,.15c-.16-.07-.31-.15-.46-.24-.3-.2,.22,.2,.04,.04-.06-.05-.11-.1-.17-.16s-.1-.12-.15-.17c.17,.22,.2,.27,.12,.15-.03-.04-.05-.07-.07-.11-.09-.15-.17-.3-.24-.46l.15,.36c-.1-.24-.16-.49-.2-.75l.05,.4c-.04-.31-.04-.61,0-.92l-.05,.4c.04-.28,.11-.55,.22-.82l-.15,.36c.08-.19,.18-.37,.3-.54,.03-.05,.14-.19-.02,.02s-.04,.05,0,0c.07-.08,.15-.16,.23-.23,.59-.52,.57-1.6,0-2.12-.63-.58-1.49-.55-2.12,0h0Z"/>
</svg>