<?xml version="1.0" encoding="UTF-8"?>
<svg id="Layer_1" data-name="Layer 1" xmlns="http://www.w3.org/2000/svg" width = "88.81" height = "69.45" viewBox="0 0 88.81 69.45">
  <defs>
    <style>
      .cls-1 {
        fill: #fff;
      }

      .cls-2 {
        fill: #98d1e1;
      }

      .cls-3 {
        fill: #c62390;
      }
    </style>
  </defs>
  <g id="_3775" data-name="3775">
    <g vector-effect="non-scaling-stroke">
      <g id="Layer_5" data-name="Layer 5">
        <path class="cls-2" d="M32.15,68.16c.19,0,.19-.3,0-.3s-.19,.3,0,.3h0Z"/>
      </g>
      <g id="Layer_5-2" data-name="Layer 5">
        <path class="cls-3" d="M14.78,61.18c1.18,4.34,6.28,8.42,11.36,7.21,4.42-1.05,6.3-5.49,6.52-6.03,3.42-8.89,3.63-11.51,2.91-11.91-.8-.44-3,1.77-2.98,1.75,.45-.47,1.17-1.08,1.81-.91,.42,.11,.84,.58,1.37,3.31,.67,3.44,.8,6.74,.8,6.74,0,0-.27,3.07,1.83,5.47,1.83,2.09,4.22,2.47,4.93,2.57,4.04,.56,8.39-2.04,10.13-5.48,1.62-3.21,.15-14.34,.59-10.77l-1.48-2.37c.6,2.01,1.84,5.24,4.51,8.43,1.75,2.09,3.53,4.21,6.55,5.11,3.85,1.14,9.66,.29,11.46-3.66,.89-1.96,.29-4.05-.4-6.42,0,0-.47-1.64-3.56-7.31-.79-.39-.97-.43-.99-.4-.15,.25,6.16,6.61,12.15,5.53,2.4-.43,4.57-2.03,5.67-4.1,1.94-3.66,.19-8.1-2.01-10.42,0,0-1.43-1.51-3.46-2.27-7.75-2.92-66.66,6-72.42,6.87l-6.82,1.52c-.57,.13-1.49,.44-2.19,1.21-2.04,2.26-1.03,7.17,1.79,9.46,.34,.28,1.6,1.24,3.75,1.48,6.88,.78,12.74-6.85,13.54-7.9,.53-.23,1.05-.46,1.58-.69-.53,.23-1.05,.46-1.58,.69-1.12,.96-2.86,2.7-4.1,5.38-.77,1.67-2.16,4.68-1.28,7.9h0Z"/>
      </g>
      <g id="Layer_3" data-name="Layer 3">
        <path class="cls-2" d="M43.82,.02c-2.7,0-7.11,.33-12.05,2.37-7.27,2.99-11.33,7.87-12.45,9.29-1.76,2.24-6.21,8.02-6.32,16.4-.02,1.71-.05,5.45,1.68,9.29,5.63,9.48,17.38,12.75,21.04,13.34,15.85,2.55,34.53-6.39,36.75-17.78,.04-.19,.09-.54,.14-.87,.94-6.59-.82-11.9-1.42-13.56-1.44-3.94-3.52-6.82-5.14-8.69,0,0-5.36-6.61-14.13-8.89-.54-.14-.97-.24-1.28-.3C47.84,.01,45.44-.04,43.82,.02Z"/>
      </g>
      <g id="Layer_3-2" data-name="Layer 3">
        <path class="cls-2" d="M14.58,37.56c-1.42,.09-3.2,.37-5.14,1.09-.57,.21-1.96,.76-3.56,1.78-.8,.51-1.76,1.13-2.77,2.17-.69,.71-1.81,1.79-2.17,3.06-.95,3.33,1.6,7.81,5.34,8.99,2.56,.81,5-.25,6.03-.69,1.82-.78,3.22-2.14,3.66-2.57,1.74-1.71,2.64-3.51,3.56-3.26,.31,.08,.47,.35,.49,.4,.5,.85-.8,2.08-2.17,4.74-.43,.84-.86,1.67-1.19,2.77-.3,1.04-.84,2.88-.4,4.64,.83,3.26,4.73,5.08,7.61,5.43,.93,.11,2.55,.31,4.25-.49,2.53-1.2,3.52-3.84,4.35-6.03,.72-1.91,.99-3.62,1.09-4.84,.02-.38,.17-2.38,1.19-3.26,.16-.14,.47-.41,.89-.4,.43,.02,.74,.33,.89,.49,.95,1,.82,3.12,.79,3.48v3.68c-.02,.33-.04,.81,0,1.38,.07,1.11,.28,4.31,2.57,6.38,2.77,2.51,6.7,1.68,7.11,1.58,.8-.21,2.34-.73,3.75-2.07,.41-.4,1.73-1.69,2.27-3.75,.6-2.3-.11-3.98,0-7.56,.02-.58,.11-1.74,.82-2.11,.05-.03,.27-.14,.56-.11,1.23,.09,1.55,2.49,4.05,6.13h0c.05,.08,2.05,2.98,3.54,3.83,4.24,2.42,9.3,.12,9.3,.12,0,0,4.64-1.48,2.87-7.51s-5.53-6.82-5.04-9.68c.1-.16,.28-.38,.56-.49,1.08-.42,2.38,1.31,4.28,2.86,1.32,1.08,4.36,3.55,7.71,3.16,1.56-.18,2.65-.93,3.02-1.19,3.14-2.2,4.22-6.95,2.74-10.42-.91-2.14-2.57-3.25-3.99-4.2-4.05-2.7-8.42-2.95-10.93-2.84"/>
      </g>
      <g id="Layer_4" data-name="Layer 4">
        <path d="M38.2,24.67s0,0,0,0c0,0-.06-.09-.19-.13-.1-.04-3.75-.83-8.69-1.9-.02,0-.18-.02-.3,.1-.08,.07-.09,.16-.1,.2-.34,1.57-.68,3.13-1.02,4.7,0,.01,0,.03,.01,.04-.56,2.95,1.48,5.65,4.08,5.96,2.2,.26,4.47-1.24,5.17-3.64,0,0,0-.02,0-.03l1.07-5.07c.02-.08,0-.15-.04-.22h0Z"/>
      </g>
      <g id="Layer_4-2" data-name="Layer 4">
        <path class="cls-1" d="M36.03,25.25c-.24-.02-.41,.27-.33,.48,.09,.25,.39,.33,.63,.28,.12-.03,.23-.1,.28-.21,.04-.1,.05-.21,.02-.32s-.1-.19-.2-.25c-.1-.06-.23-.07-.34-.03-.23,.07-.39,.29-.38,.53,.01,.23,.16,.45,.39,.51,.24,.06,.5-.1,.57-.33s-.08-.44-.29-.51c-.2-.07-.46,.03-.5,.25-.04,.2,.09,.45,.31,.49,.06,.01,.12,.01,.17,0,.07-.03,.13-.1,.1-.18-.02-.07-.1-.13-.18-.1,0,0-.02,0-.02,0-.03,0,.04,0,0,0h-.02s.04,0,0,0c0,0-.01,0-.02,0-.03,0,.03,.02,0,0,0,0-.01,0-.02-.01h0s0-.01,0,0c0-.01-.02-.02-.03-.03h0s0-.01,0,0c0,0,0-.01-.01-.02,0,0,0-.01-.01-.02,0-.02,0-.02,0,0,0-.01-.01-.03-.01-.05,0-.03,0,.03,0,.01v-.02s0-.02,0,0c0,0,0-.01,0-.02,0,0,0-.02,0-.02,0,.03-.01,.02,0,0,0,0,0-.01,.01-.02-.01,.02-.02,.02,0,.01h.01s.01-.01-.01,0c0,0,.01,0,.02-.01,.03-.02-.03,0,0,0,.01,0,.03,0,.04,0-.04,.01-.02,0,0,0h.02s.03,0,0,0c0,0,.01,0,.02,0,.01,0,.03,0,.04,.01,.02,0,0,0-.01,0,0,0,.02,0,.02,.01,0,0,.01,0,.02,.01,.01,0,.02,.02,0,0,0,0,.02,.02,.03,.03,.01,.01,0,.02,0,0,0,0,0,.01,.01,.02,0,0,0,.01,0,.02,.01,.03,0-.03,0,0,0,0,0,.01,0,.02,0,.04,0-.02,0,0v.02h0s0,.02,0,0c0,0-.01,.04-.01,.05,0,.03,.02-.03,0,0,0,0,0,.01,0,.02,0,0-.01,.02-.02,.02,.01-.02,.01-.02,0,0,0,0,0,0,0,.01l-.02,.02s-.03,.02,0,0c-.01,0-.03,.02-.04,.03,0,0-.01,0-.02,.01-.02,0,.03-.01,0,0,0,0-.06,.02-.06,.01h.02s-.01,0-.02,0h-.02s0,0,0,0c0,0-.03,0-.03,0,0,0-.01,0-.02,0-.03,0,.03,.02,0,0,0,0-.05-.02-.05-.03h.01s0,0-.01,0c0,0,0,0-.01-.01,0,0-.01-.01-.02-.02-.02-.02,0,0,0,0,0,0-.03-.04-.03-.05v-.02s-.01-.01,0,0c0,0,0-.01,0-.02,0-.02,0-.03-.01-.05,0,0,0-.02,0-.02,0-.02,0,.04,0,0,0-.02,0-.03,0-.05h0s0-.02,0,0c0,0,0-.03,0-.03,0,0,0-.02,0-.02h0s0-.02,0,0c0,0,.02-.04,.02-.04s0-.01,.01-.02c.01-.02-.02,.03,0,0,.01-.01,.03-.03,.04-.04,.03-.02-.03,.02,0,0,0,0,.01,0,.02-.01,0,0,.02,0,.03-.01h0s.01-.01,0,0c0,0,.04-.01,.05-.01h0s.01,0,0,0-.01,0,0,0h.02s.02,0,.02,0c.02,0-.04,0,0,0,0,0,.04,.02,.05,.01-.01,0-.03-.01,0,0,0,0,.02,.01,.02,.01,0,0-.03-.02,0,0,0,0,.02,.01,.02,.02,0,0,0,.01,.01,.01-.02-.02-.01-.02,0,0,0,0,.01,.03,.02,.04-.02-.02,0-.02,0,0,0,0,0,.01,0,.02,0,0,0,.02,0,.02,0,.03,0-.03,0,0v.05s0,0,0-.01c0,0,0,.02,0,.02,0,0,0,.01,0,.02v-.02s0,0,0,.01c0,0-.01,.02-.01,.02,0-.01,.02-.03,0,0h0s0,.01,0,0c0,0-.03,.02-.03,.02-.03,.02,.03,0,0,0-.01,0-.02,0-.03,.01s-.02,0-.04,0c-.04,0,.02,0,0,0-.02,0-.05,0-.07,0,0,0-.02,0-.03,0,.02,0,.02,0,0,0,0,0,0,0-.02,0-.01,0-.06,0-.07-.02,0,0,.03,.02,0,0-.01,0-.02-.01-.04-.02,0,0-.01,0-.02-.01,.02,.01,.02,.01,0,0,0,0,0,0-.01-.01,0,0-.01-.01-.01-.01,.01,.02,.01,.02,0,0,0,0,0-.01-.01-.02-.02-.02,0,.02,0,0,0,0,0-.02,0-.03,.01,.02,0,.03,0,0,0,0,0-.02,0-.03v.02s0-.01,0-.02c0,0,0-.02,0-.03,0-.03-.02,.03,0,0,0,0,0-.01,.01-.02,.01-.03-.02,.02,0,0,0,0,.02-.01,.02-.02,0,.02-.03,.02,0,0,.03-.02,0,0,0,0h0s0,0-.02,0c0,0,.02,0,.03,0,.08,0,.15-.07,.15-.15,0-.09-.07-.14-.15-.15h0Z"/>
      </g>
      <g id="Layer_4-3" data-name="Layer 4">
        <path class="cls-1" d="M36.38,25.55c-.1,0-.2,.04-.27,.12-.07,.09-.11,.2-.08,.31,0,.02,.01,.04,.02,.06,.02,.03,.05,.05,.08,.06,.02,0,.04,.02,.06,.02,.05,0,.1,0,.16,0,.08-.02,.15-.06,.21-.12,.12-.13,.17-.32,.08-.48-.02-.03-.05-.06-.08-.08-.02-.01-.05-.02-.08-.03-.06-.01-.11-.01-.16,0-.1,.01-.18,.08-.24,.16-.06,.09-.08,.21-.04,.31,.04,.11,.13,.2,.24,.24,.07,.02,.16-.03,.18-.1s-.02-.16-.1-.18c0,0-.01,0-.02,0h.04s-.03,0-.05-.01l.03,.02s-.03-.02-.04-.04l.02,.03s-.02-.04-.03-.06v.04s0-.04,0-.06v.04s0-.04,0-.05v.04s0-.04,0-.05v.04s0-.03,0-.04l-.02,.03s.02-.03,.04-.04l-.03,.02s.03-.02,.05-.03h-.04s.04,0,.06,0h-.04s.04,0,.06,0h-.04s.03,0,.05,0h-.04s.02,0,.03,0l-.05-.05s.02,.02,.02,.04v-.04s0,.03,0,.05v-.04s0,.04,0,.06v-.04s0,.05-.01,.07v-.04s-.01,.05-.03,.07l.02-.03s-.04,.04-.06,.06l.03-.02s-.04,.03-.06,.04h.04s-.04,0-.06,0h.04s-.04,0-.06,0h.04s-.03,0-.05,0h.04s0,.01,0,.01l.07,.09s0-.02,0-.03v.04s0-.03,0-.05v.04s0-.03,0-.05v.04s0-.04,.02-.05l-.02,.03s.02-.03,.04-.04l-.03,.02s.03-.02,.05-.03h-.04s.03,0,.04,0h-.04s.02,0,.04,0c.08,0,.15-.07,.15-.15,0-.08-.07-.14-.15-.15h0Z"/>
      </g>
      <g id="Layer_4-4" data-name="Layer 4">
        <path class="cls-1" d="M36.39,25.25c-.15-.08-.34-.06-.48,.04s-.23,.29-.18,.47c.09,.31,.56,.44,.77,.18,.14-.17,.14-.41,0-.58-.13-.16-.35-.18-.53-.09s-.26,.3-.22,.49,.19,.33,.38,.36c.24,.04,.47-.08,.56-.31s-.08-.5-.33-.51c-.08,0-.15,.07-.15,.15s.07,.15,.15,.15c.03,0-.03,0,0,0,0,0,.01,0,.02,0,.03,0,0,0,0,0,0,0,.02,0,.02,0,.01,0,0,.01,0,0,0,0,0,0,.01,.01,0,0,0,0,.01,.01,.02,.02-.01-.02,0,0,0,0,0,.01,0,.02,.02,.03,0-.02,0,0,0,0,0,.01,0,.02,0,.03,0,0,0,0,0,0,0,.04,0,.04,0,.03,0,0,0,0,0,0,0,.03,0,.03,0,0,0,.02,0,.02,.02-.02,0-.01,0,0s-.01,.03-.03,.04c0,0,.02-.02,0,0,0,0,0,.01-.01,.02s-.01,0-.02,.01c-.02,.02,.02-.01,0,0-.01,0-.02,.01-.04,.02-.03,.02,.02,0,0,0,0,0-.01,0-.02,0-.01,0-.03,0-.04,.01-.03,0,0,0,0,0,0,0-.02,0-.03,0-.01,0-.03,0-.04,0-.03,0,.02,0,0,0,0,0-.01,0-.02,0-.01,0-.03-.01-.04-.01,0,0,.03,.02,0,0,0,0-.02,0-.03-.01,0,0-.01-.01-.02-.01,.01,0,.02,.02,0,0l-.03-.03s.02,.03,0,0c0,0,0-.01,0-.02s0-.01,0-.02c0,0,0,0,0-.01,0,0,0,0,0,.01,0,0,0-.03-.01-.04,0,0,0-.01,0-.02,0-.03,0,.03,0,0,0-.01,0-.03,0-.04,0,0,0-.01,0-.02,0-.03,0,.03,0,0,0-.01,0-.02,0-.04,0-.03,0,0,0,0,0,0,0-.02,.01-.02,0,0,0-.01,0-.02,0-.02-.02,.03,0,0,0,0,.03-.03,.03-.03s-.03,.02,0,0c0,0,.01,0,.02,0s.01,0,.02,0c.02-.01,0,0,0,0,0,0,.04-.01,.04-.01,.02,0,0,0,0,0,0,0,.02,0,.02,0,.01,0,.03,0,.04,0-.03,0-.02,0-.01,0,0,0,.01,0,.02,0h0s.01,0,0,0h0s0,0,.01,0c0,0,.01,0,.02,.01,.02,.01-.02-.01,0,0,.01,0,.02,.02,.03,.03,0,0,0,.02,0,0,0,0,0,.01,.01,.02,0,.01,.01,.02,.02,.04,0,.02,0-.03,0,0,0,0,0,.02,0,.03,0,0,0,.01,0,.02,0,.02,0-.04,0,0v.04s0,0,0-.01c0,0,0,.02,0,.02,0,0,0,.01,0,.02,0,0,0,0,0,0,0,0,0,0,0,.02,0,0,0,.01-.01,.02h0s0,.02,0,0c0,0-.02,.02-.03,.03-.02,.02,0,0,.01,0,0,0,0,0-.01,0,0,0-.01,0-.02,0-.02,.01,0,0,.01,0-.01,0-.02,0-.04,.01-.02,0-.04,0,0,0-.02,0-.05,0-.07,0,.04,0,.03,0,.01,0,0,0,0,0-.01,0-.01,0-.02,0-.03,0,0,0,0,0-.01,0-.02,0,.01,0,.01,0,0,0-.02-.01-.03-.02,0,0-.04-.03-.02,0s0,0-.01-.01c0,0-.01-.01-.02-.02-.02-.02,0,.01,0,.01,0,0,0-.01-.01-.02,0,0,0,0,0-.01-.01-.02,.01,.03,0,0,0-.01,0-.02,0-.04,0-.02,0,.01,0,.02,0,0,0-.02,0-.03,0,0,0-.01,0-.02,0-.02,0,.04,0,.01,0-.01,.01-.03,.01-.04,0,.03-.01,.02,0,0,0,0,0-.01,0-.02s0-.01,.01-.02c0-.02-.02,.03,0,0,0-.01,.02-.02,.03-.03,0,0,.01,0,.02-.01,.01-.01-.03,.02,0,0,.01,0,.03-.02,.04-.02,0,0,0,0,.01,0,.01,0-.04,.01,0,0,.01,0,.03,0,.04-.01,0,0,.03,0,0,0-.03,0,0,0,0,0h.02s.04,0,0,0,.02,0,.02,0,.02,.01,0,0c-.02-.01,0,0,.01,0,.07,.04,.16,.02,.2-.05s.02-.16-.05-.2h0Z"/>
      </g>
      <g id="Layer_4-5" data-name="Layer 4">
        <path d="M58.19,22.69s0,0,0,0c0,0-.09-.06-.23-.04-.11,0-3.75,.79-8.69,1.87-.02,0-.17,.06-.23,.21-.04,.1-.02,.19,0,.22,.34,1.57,.68,3.13,1.02,4.7,0,0,.02,.02,.03,.03,.71,2.92,3.69,4.53,6.18,3.73,2.11-.67,3.55-2.98,3.2-5.45,0,0,0-.02,0-.03l-1.13-5.06c-.02-.08-.06-.14-.13-.18h0Z"/>
      </g>
      <g id="Layer_4-6" data-name="Layer 4">
        <path class="cls-1" d="M57.36,24.03c-.22-.04-.45,.03-.59,.2-.15,.18-.17,.42-.07,.63s.33,.33,.56,.29c.22-.03,.41-.22,.45-.44s-.08-.44-.29-.54c-.1-.05-.21-.07-.32-.05-.05,0-.09,.02-.13,.05-.07,.04-.09,.14-.09,.22,0,.24,.22,.44,.46,.39,.21-.04,.33-.28,.28-.48-.07-.27-.4-.33-.61-.2-.25,.15-.28,.47-.21,.73,.02,.08,.11,.13,.18,.1s.13-.1,.1-.18c0-.02,0-.03-.01-.05,0,0,0-.06,0-.02,0-.03,0-.07,0-.1,0,0,0-.02,0-.03,0,0,0-.02,0,0,0,.02,0,0,0-.01,0,0,0-.02,0-.02,0-.01,0-.03,.01-.04,0-.03,0,0,0,0,0,0,0-.02,.01-.03,0,0,0-.01,.01-.02,0,0,.02-.03,0,0-.01,.01,.01-.01,.02-.02,0,0,.01,0,.02-.01-.02,.02-.01,0,0,0,.01,0,.03-.02,.04-.02,.01,0-.01,0-.01,0,0,0,.01,0,.02,0,.01,0,.03,0,.04-.01,.02,0,0,0,0,0,0,0,.02,0,.02,0h.02s0,0,0,0c0,0,.03,0,.04,0,.02,0,0,0,0,0,0,0,.02,0,.02,0,0,0,0,0,.01,0,.02,0-.02-.02,0,0,0,0,0,.01,.01,.01,.01,0-.02-.03,0,0,0,0,0,.02,0,.02,0,0-.01-.04,0,0,0,0,0,.04,0,.02,0-.03,0,0,0,.02v.02s0-.02,0,0c0,.01,0,.02,0,.04,0,.03,.01-.02,0,0,0,0-.02,.03-.02,.03,0,0,.02-.03,0,0,0,0-.01,.01-.02,.02-.02,.02,.02,0,0,0,0,0-.01,0-.02,0-.02,.01,0,0,0,0,0,0-.02,0-.02,0-.02,0,.01,0,.01,0h-.02s0,0,0,0c0,0-.02,0-.02,0-.03,0,.02,.01,0,0,0,0-.01,0-.02,0-.02,0-.01,0,0,0-.01,0-.02-.02-.03-.03-.01-.01,.01,.02,0,0,0,0,0-.01-.01-.02,0,0,0-.02,0-.02,0,0,0,.03,0,0,0,0,0-.01,0-.02,0,0,0,0,0-.01,0,0,0,0,0,0h0s0,0,0,0c0-.03,0,0,0,0,0,0,.03-.07,0-.02l-.05,.05h0s.01-.01,0,0c0,0,.02,0,.03,0,0,0,.01,0,.02,0,.03,0-.03,0,0,0h.05s-.03,0,0,0c0,0,.02,0,.03,0s.02,0,.03,0c.02,0,0,0,0,0,.01,0,.04,.02,.05,.03,0,0,.02,0,.02,.01h-.01s.01,0,.02,0c.01,0,.04,.03,.04,.04,0-.01-.01-.02,0,0,0,0,.01,.02,.02,.03,0,0,0,.02,.01,.02,.01,.02,0-.03,0,0,0,.01,.02,.04,.01,.05v-.02s0,.02,0,.02c0,0,0,.05,0,.03s0,.01,0,.01c0,.01,0,.02,0,.03,0,0,0,.01,0,.02,.01-.03,0,0,0,0,0,.02-.02,.03-.03,.05,.02-.03,0,0,0,0,0,0-.02,.02-.02,.02,0,0-.04,.03,0,0,0,0-.01,0-.02,.01,0,0-.02,.01-.03,.02,0,0-.03,.02-.01,0s-.01,0-.01,0c-.01,0-.02,0-.03,0,0,0-.01,0-.02,0,.04,0,0,0-.02,0,0,0-.02,0-.03,0-.02,0,.03,0,0,0-.02,0-.04,0-.05-.02,.04,.01,0,0,0,0,0,0-.02,0-.02-.01s-.01,0-.02-.01c-.02-.02,.02,.02,0,0-.01-.01-.03-.03-.04-.04-.02-.02,0,0,0,0,0,0-.01-.02-.02-.03,0-.02-.02-.03-.03-.05,.02,.03,0,0,0,0,0-.01,0-.02,0-.03s0-.02,0-.03c0-.03,0,0,0,0,0-.01,0-.05,0-.07,0-.01,0-.02,0,0,0,0,0-.02,0-.03,0,0,0-.02,0-.03,0-.04,0,.01,0-.01,.01-.02,.02-.04,.03-.06,.02-.03-.02,.02,0,0,0,0,.01-.02,.02-.02s.02-.01,.02-.02c.02-.02-.02,.01,0,0,.02-.01,.04-.02,.06-.03,0,0,.02,0,.03-.01-.03,.02,0,0,0,0,.02,0,.04-.01,.06-.02,.04,0-.03,0,0,0,.01,0,.02,0,.03,0s.02,0,.03,0c.02,0,.01,0,0,0,0,0,.01,0,.02,0,.08,.02,.16-.02,.18-.1,.02-.07-.02-.17-.1-.18h0Z"/>
      </g>
      <g id="Layer_4-7" data-name="Layer 4">
        <path class="cls-1" d="M57.23,24.54s.02,.01-.01,0c.01,0,0,.01-.02-.01,.02,.01-.02-.03-.01-.02s-.01-.04,0-.02,0-.04,0-.02h0s0-.02,0,0c0,0,0,.01,0,.02,0,.02,.02-.04,0-.02,0,0,0,0,0,.01-.01,.02,.03-.03,0-.01,0,0,0,0,0,0,.02-.02,.03-.02,.01,0,0,0,0,0-.01,0,.03-.02,.02,0,0,0,0,0-.02,0-.03,0-.07,.02-.14,.04-.2,.09s-.09,.12-.1,.2c0,.13,.08,.25,.19,.31,.13,.07,.27,.06,.39-.02s.2-.21,.27-.34c.03-.07,.02-.16-.05-.2-.07-.04-.17-.02-.2,.05-.02,.05-.05,.1-.08,.14,0,.01-.01,.02-.02,.03-.02,.02,.02-.02,0,0,0,0,0,.01-.01,.02,0,0-.02,.02-.02,.03,0,0-.02,.02-.03,.03,0,0,.03-.02,.01,0,0,0-.01,0-.02,.01,0,0-.02,.01-.03,.02-.02,.01,.01,0,.01,0,0,0-.02,0-.02,0,0,0,0,0-.02,0-.02,0-.02,0,.01,0h-.03s.04,0,.02,0c0,0,0,0-.01,0,0,0-.01,0-.02,0-.01,0-.02-.01,.01,0,0,0-.02,0-.03-.02-.01,0-.02-.02,0,0,0,0,0,0,0,0,0,0-.01-.01-.02-.02,0,0-.01-.02,0,.01,0,0,0,0,0-.01,0,0-.02-.04,0-.02s0,0,0-.01c0-.02,0,.04,0,.02h0s0,.03,0,0c0-.02,.01,0,0,.02,0,0,0-.02,0-.02,0,0-.03,.03-.01,.01,0,0,.02-.02,0,0s.01,0,.02,0c.03-.01-.03,0,0,0,0,0,.01,0,.02,0,.01,0,.03,0,.04-.01,.06-.02,.13-.04,.18-.09,.05-.06,.08-.13,.08-.21,0-.09-.06-.19-.16-.2-.04,0-.08,0-.11,.01-.03,.02-.06,.05-.07,.09-.02,.07,.02,.17,.1,.18h0Z"/>
      </g>
      <g id="Layer_4-8" data-name="Layer 4">
        <path d="M41.82,40.15c.08-1.21,.59-2.5,1.74-3.05,.5-.24,1.08-.3,1.61-.12s.87,.57,1.13,1.03c.32,.56,.5,1.2,.66,1.83,.09,.37,.67,.21,.57-.16-.3-1.19-.74-2.63-1.96-3.18-.64-.29-1.38-.28-2.03-.03s-1.22,.73-1.61,1.34c-.44,.7-.64,1.52-.7,2.34-.01,.16,.14,.3,.3,.3,.17,0,.29-.14,.3-.3h0Z"/>
      </g>
    </g>
  </g>
</svg>