<?xml version="1.0" encoding="UTF-8"?>
<svg xmlns="http://www.w3.org/2000/svg" viewBox="0 0 898.86 702.95">
  <defs>
    <style>
      .cls-1 {
        fill: #fff;
      }

      .cls-2 {
        fill: #98d1e1;
      }

      .cls-3 {
        fill: #c62390;
      }
    </style>
  </defs>
  <g id="Layer_5" data-name="Layer 5">
    <path class="cls-2" d="M325.36,689.88c1.93,0,1.93-3,0-3s-1.93,3,0,3h0Z"/>
    <path class="cls-3" d="M149.53,619.19c11.94,43.89,63.52,85.19,115,73,44.74-10.6,63.78-55.52,66-61,34.59-89.94,36.77-116.52,29.5-120.5-8.08-4.42-30.35,17.87-30.2,17.71,4.55-4.74,11.84-10.92,18.34-9.18,4.3,1.15,8.49,5.84,13.86,33.47,6.76,34.77,8.05,68.17,8.05,68.17,0,0-2.77,31.05,18.52,55.32,18.55,21.15,42.67,25.01,49.93,26.01,40.92,5.63,84.96-20.62,102.49-55.5,16.35-32.51,1.47-145.11,6-109,0,0-15-24-15-24,6.06,20.3,18.62,53.04,45.66,85.29,17.7,21.11,35.74,42.62,66.34,51.71,38.94,11.57,97.81,2.89,116-37,9.03-19.8,2.93-40.97-4-65,0,0-4.78-16.59-36-74-7.97-3.96-9.79-4.35-10-4-1.51,2.49,62.36,66.91,123,56,24.33-4.38,46.21-20.54,57.34-41.54,19.65-37.08,1.94-81.96-20.34-105.46,0,0-14.49-15.29-35-23-78.49-29.52-674.72,60.68-733,69.58l-69,15.42c-5.73,1.34-15.04,4.41-22.15,12.27-20.66,22.85-10.43,72.58,18.15,95.73,3.47,2.81,16.2,12.51,38,15,69.6,7.94,128.99-69.3,137-80,5.33-2.33,10.67-4.67,16-7-5.33,2.33-10.67,4.67-16,7-11.29,9.67-28.95,27.36-41.5,54.5-7.83,16.92-21.89,47.34-13,80Z"/>
  </g>
  <g id="Layer_3" data-name="Layer 3">
    <path class="cls-2" d="M443.53,.19c-27.29-.01-71.98,3.39-122,24-73.54,30.29-114.7,79.64-126,94-17.84,22.68-62.82,81.19-64,166-.24,17.35-.48,55.15,17,94,57,96,175.93,129.04,213,135,160.39,25.77,349.45-64.65,372-180,.37-1.89,.93-5.43,1.41-8.79,9.56-66.74-8.28-120.48-14.41-137.21-14.58-39.84-35.6-69.06-52-88,0,0-54.26-66.9-143.02-89.94-5.44-1.41-9.86-2.39-12.98-3.06C484.15,.1,459.91-.41,443.53,.19Z"/>
    <path class="cls-2" d="M147.53,380.19c-14.41,.93-32.43,3.77-52,11-5.81,2.15-19.82,7.66-36,18-8.07,5.16-17.79,11.45-28,22-6.95,7.18-18.34,18.14-22,31-9.58,33.68,16.19,79.07,54,91,25.92,8.18,50.6-2.54,61-7,18.43-7.9,32.59-21.68,37-26,17.66-17.3,26.71-35.52,36-33,3.09,.84,4.75,3.57,5,4,5.03,8.58-8.1,21.06-22,48-4.39,8.51-8.75,16.88-12,28-3.08,10.52-8.53,29.14-4,47,8.38,33.04,47.86,51.42,77,55,9.39,1.15,25.76,3.16,43-5,25.58-12.11,35.62-38.85,44-61,7.32-19.35,9.99-36.63,11-49,.24-3.84,1.72-24.1,12-33,1.63-1.41,4.8-4.15,9-4,4.38,.16,7.44,3.37,9,5,9.66,10.11,8.27,31.62,8,35.2v37.25c-.22,3.35-.38,8.18,0,13.97,.74,11.28,2.81,43.58,26,64.58,28.03,25.38,67.79,16.96,72,16,8.11-2.1,23.72-7.35,38-21,4.19-4,17.53-17.08,23-38,6.09-23.31-1.12-40.31,0-76.52,.18-5.85,1.11-17.58,8.35-21.32,.52-.27,2.78-1.38,5.65-1.16,12.48,.92,15.73,25.16,41,62,0,0,.01,.02,.01,.02,.55,.8,20.78,30.19,35.82,38.77,42.94,24.5,94.17,1.21,94.17,1.21,0,0,47-15,29-76s-56-69-51-98c1.06-1.63,2.85-3.83,5.67-4.92,10.93-4.25,24.07,13.26,43.33,28.92,13.39,10.89,44.16,35.91,78,32,15.78-1.82,26.85-9.38,30.6-12,31.79-22.27,42.72-70.38,27.78-105.5-9.24-21.71-26.01-32.91-40.38-42.5-40.98-27.36-85.23-29.83-110.59-28.79"/>
  </g>
  <g id="Layer_4" data-name="Layer 4">
    <path d="M386.61,249.7s-.02-.03-.03-.05c0,0-.57-.88-1.9-1.34-1.02-.36-37.91-8.43-87.92-19.27-.22-.03-1.81-.19-3,.99-.77,.75-.95,1.65-1.01,2-3.44,15.86-6.87,31.71-10.31,47.57,.04,.13,.07,.26,.11,.39-5.7,29.84,15.02,57.21,41.28,60.31,22.25,2.63,45.2-12.55,52.32-36.8,.03-.09,.05-.18,.07-.26l10.8-51.32c.16-.76,0-1.54-.41-2.2Z"/>
    <path class="cls-1" d="M364.68,255.6c-2.46-.24-4.13,2.76-3.34,4.89,.93,2.52,3.92,3.34,6.34,2.79,1.17-.27,2.33-.99,2.84-2.12,.45-1.01,.53-2.17,.16-3.22s-1.02-1.97-1.99-2.5c-1.04-.58-2.34-.68-3.47-.33-2.28,.71-3.99,2.92-3.86,5.34,.12,2.29,1.62,4.58,3.94,5.14,2.46,.59,5.05-.99,5.81-3.36s-.76-4.5-2.94-5.21c-2.02-.66-4.65,.29-5.11,2.55-.42,2.07,.94,4.56,3.12,4.98,.59,.11,1.2,.11,1.77-.1,.74-.27,1.31-1.03,1.05-1.85-.23-.72-1.06-1.33-1.85-1.05-.08,.03-.17,.05-.25,.08-.28,.09,.36,0,.07,0-.05,0-.11,0-.16,0-.29,0,.36,.1,.08,.01-.05-.01-.11-.03-.16-.04-.29-.06,.32,.17,.06,.03-.07-.04-.15-.08-.22-.12l-.07-.05c-.13-.09-.09-.06,.1,.08-.07-.11-.22-.19-.31-.29l-.06-.06c-.1-.12-.07-.09,.07,.1-.01-.05-.09-.13-.12-.18-.04-.06-.07-.12-.11-.19-.09-.18-.02-.24,0,.04-.01-.15-.11-.34-.14-.49-.07-.29,0,.3,.01,.11,0-.07,0-.14,0-.21,0-.19,.1-.25-.03,.07,.02-.05,.02-.12,.03-.16,.02-.07,.07-.17,.07-.24-.02,.29-.13,.24-.02,.09,.03-.05,.1-.13,.12-.18-.15,.19-.17,.22-.07,.11,.04-.04,.08-.08,.12-.12,.1-.1,.13-.01-.11,.08,.07-.03,.14-.09,.2-.13,.34-.19-.3,.08,.08-.04,.13-.04,.26-.05,.39-.09-.39,.11-.23,.03-.08,.02,.08,0,.16,0,.25,0,.16,0,.31,.1-.07-.02,.06,.02,.14,.02,.2,.04,.15,.03,.29,.08,.44,.13,.23,.07-.1-.04-.13-.06,.05,.05,.16,.08,.23,.11,.07,.04,.15,.08,.22,.13,.13,.09,.18,.24-.03-.04,.08,.1,.21,.18,.3,.28,.14,.15,.07,.22-.03-.05,.02,.06,.08,.12,.11,.17,.04,.06,.07,.12,.1,.18,.15,.26-.1-.34-.03-.05,.01,.05,.03,.11,.05,.16,.1,.38,.02-.21,.02,.07,0,.07,0,.13,0,.2v.1c-.02,.17-.01,.13,.01-.1,0,0-.11,.42-.13,.48-.1,.32,.17-.28,0,0-.03,.06-.06,.12-.1,.17-.02,.04-.12,.24-.17,.25,.13-.17,.15-.19,.05-.07-.03,.04-.07,.08-.1,.11-.06,.06-.12,.12-.18,.18-.1,.1-.31,.17,0,.03-.15,.07-.28,.2-.43,.28-.07,.04-.15,.08-.23,.12-.19,.1,.35-.11,.03-.02-.03,0-.58,.18-.59,.15l.2-.03c-.07,0-.13,.01-.2,.01-.08,0-.17,0-.25,0-.32-.02,.05,.01,.05,.01,0,0-.27-.06-.29-.07-.06-.02-.12-.04-.19-.06-.32-.1,.29,.16,0,0-.05-.03-.51-.25-.5-.3l.15,.12c-.05-.04-.1-.08-.15-.13-.05-.04-.1-.09-.14-.14-.07-.07-.13-.14-.2-.22-.2-.21,.06,.07,.05,.07-.07,0-.28-.44-.32-.5-.03-.06-.06-.12-.09-.18-.07-.15-.06-.12,.03,.09-.02-.06-.05-.12-.07-.19-.05-.16-.1-.32-.14-.48-.02-.08-.02-.17-.05-.24-.06-.2,.02,.38,.01,.05,0-.17-.02-.33,0-.5v-.1c.02-.17,.01-.13-.02,.1,.03-.01,.06-.3,.07-.34,.02-.08,.04-.16,.07-.24l.03-.1c.06-.15,.05-.13-.03,.07-.02-.09,.2-.38,.25-.45s.1-.14,.15-.21c.12-.18-.25,.26,0,.02,.15-.15,.29-.3,.44-.43,.26-.23-.27,.17,.02-.02,.06-.04,.11-.08,.17-.11,.09-.05,.18-.1,.27-.15l.09-.05c.15-.07,.12-.06-.08,.03,.03-.07,.41-.13,.48-.15l.1-.02c.13-.02,.13-.02,0,0-.13,.02-.13,.02,0,0,.07,0,.13,0,.2,0,.08,0,.17,.02,.25,0,.19-.04-.36-.09-.05-.01,.1,.02,.39,.16,.47,.13-.14,.04-.3-.15-.05,0,.04,.02,.17,.14,.22,.14-.03,0-.28-.25-.1-.08,.08,.08,.17,.15,.25,.24,.03,.04,.08,.11,.11,.13-.24-.16-.14-.19-.03-.02,.06,.1,.13,.3,.21,.38-.18-.18-.1-.25-.02-.04,.02,.05,.04,.11,.05,.17,.02,.08,.04,.17,.06,.25,.07,.29-.02-.34,0-.06,0,.17,0,.34,0,.51s-.09,.06,.02-.15c-.03,.06-.04,.17-.06,.24,0,.03-.05,.12-.05,.16l.09-.21c-.02,.05-.05,.1-.07,.15-.03,.05-.12,.16-.13,.21,0-.11,.23-.26,.02-.04l-.06,.06c-.11,.1-.08,.08,.08-.05,0,.04-.28,.18-.31,.19-.32,.2,.28-.07-.09,.05-.12,.04-.23,.08-.35,.11s-.24,.05-.36,.08c-.36,.08,.25,0-.05,0-.23,0-.46,.02-.69,0-.06,0-.22,.01-.27-.02,.22,.03,.25,.03,.08,0-.05,0-.1-.02-.16-.03-.15-.03-.56-.08-.66-.2,0,0,.33,.16,.07,.03-.12-.07-.24-.13-.36-.2-.02-.02-.15-.08-.17-.12,.17,.13,.19,.15,.07,.04-.05-.05-.1-.09-.15-.14-.01-.01-.13-.12-.13-.15,.13,.17,.15,.19,.05,.05-.04-.06-.07-.12-.11-.18-.16-.24,.04,.25,.03,.08,0-.06-.04-.24-.08-.3,.13,.2,.02,.3,.02,.05,0-.08,.03-.19,.01-.27l-.03,.22c0-.06,.02-.12,.04-.17,.02-.09,.05-.17,.08-.26,.09-.3-.17,.3-.01,.03,.04-.07,.09-.15,.13-.23,.15-.26-.24,.24-.03,.03,.04-.04,.16-.12,.18-.18-.07,.18-.26,.17-.04,.04,.27-.16,.03,.04-.06,.02l.08-.02c.16-.04,.1-.03-.16,0,.1,.02,.23,0,.34,0,.78,.08,1.53-.75,1.5-1.5-.04-.88-.66-1.42-1.5-1.5h0Z"/>
    <path class="cls-1" d="M368.18,258.64c-1.01-.06-2.06,.45-2.7,1.22-.74,.9-1.1,2.02-.84,3.18,.04,.18,.12,.41,.21,.56,.19,.33,.47,.51,.8,.65,.2,.08,.39,.16,.61,.2,.55,.1,1.02,.1,1.57-.02,.78-.17,1.54-.65,2.09-1.23,1.2-1.27,1.76-3.26,.8-4.83-.2-.32-.46-.6-.8-.77-.25-.13-.52-.25-.8-.32-.57-.14-1.09-.13-1.66-.04-1,.15-1.87,.77-2.45,1.58-.63,.87-.76,2.16-.38,3.16,.43,1.16,1.27,2.07,2.47,2.44,.75,.23,1.67-.27,1.85-1.05s-.24-1.6-1.05-1.85c-.06-.02-.13-.04-.19-.07l.36,.15c-.17-.07-.33-.17-.47-.28l.3,.23c-.14-.12-.27-.25-.39-.39l.23,.3c-.13-.18-.24-.36-.33-.57l.15,.36c-.08-.2-.14-.41-.17-.63l.05,.4c-.02-.18-.02-.37,0-.55l-.05,.4c.03-.18,.07-.36,.14-.53l-.15,.36c.07-.15,.15-.29,.25-.43l-.23,.3c.11-.14,.24-.27,.39-.38l-.3,.23c.16-.12,.33-.22,.52-.3l-.36,.15c.2-.08,.41-.14,.62-.17l-.4,.05c.22-.03,.43-.03,.64,0l-.4-.05c.18,.03,.35,.07,.52,.14l-.36-.15c.11,.05,.21,.1,.31,.16l-.54-.54c.09,.12,.16,.25,.22,.39l-.15-.36c.07,.16,.11,.33,.14,.5l-.05-.4c.03,.2,.02,.4,0,.6l.05-.4c-.03,.23-.1,.46-.19,.68l.15-.36c-.11,.26-.26,.51-.43,.74l.23-.3c-.17,.21-.36,.41-.58,.58l.3-.23c-.2,.15-.42,.28-.65,.38l.36-.15c-.19,.08-.38,.13-.58,.16l.4-.05c-.19,.02-.37,.02-.56,0l.4,.05c-.16-.03-.32-.07-.47-.13l.36,.15s-.06-.02-.08-.04l.69,.9c-.04-.11-.07-.23-.09-.35l.05,.4c-.02-.17-.02-.33,0-.5l-.05,.4c.03-.17,.07-.33,.13-.49l-.15,.36c.08-.19,.18-.37,.31-.53l-.23,.3c.12-.15,.25-.28,.4-.4l-.3,.23c.15-.11,.31-.21,.48-.28l-.36,.15c.14-.06,.29-.1,.44-.12l-.4,.05c.12-.02,.24-.02,.36-.01,.78,.04,1.53-.72,1.5-1.5-.04-.85-.66-1.45-1.5-1.5h0Z"/>
    <path class="cls-1" d="M368.29,255.54c-1.53-.85-3.45-.64-4.84,.4s-2.37,2.89-1.83,4.71c.95,3.18,5.64,4.44,7.84,1.79,1.44-1.74,1.37-4.12-.06-5.84-1.32-1.59-3.57-1.82-5.36-.96s-2.61,3.01-2.22,4.95,1.95,3.32,3.8,3.6c2.41,.37,4.8-.84,5.68-3.18s-.78-5.11-3.35-5.19c-.79-.02-1.54,.71-1.5,1.5s.66,1.48,1.5,1.5c.33,0-.27-.08-.06-.02,.06,.02,.12,.03,.18,.05,.29,.09-.06,0-.05-.03,0,0,.18,.1,.17,.09,.11,.06,.1,.14-.07-.07,.04,.05,.1,.09,.14,.13,.05,.05,.09,.09,.13,.14,.22,.21-.14-.24,0,0,.03,.05,.06,.12,.1,.17,.17,.27-.07-.24-.01-.05,.02,.06,.04,.12,.06,.19,.08,.31,0-.07,0-.06,.03,0,0,.38,0,.42-.01,.31,0-.09,.01-.08,.02,.02-.06,.26-.08,.31-.01,.03-.04,.17-.07,.2,.19-.22,.06-.14,0-.02s-.15,.31-.26,.41c.03-.03,.22-.24,.03-.05-.05,.05-.1,.11-.15,.16s-.11,.1-.16,.15c-.25,.24,.25-.15-.03,.02-.12,.07-.24,.14-.36,.21-.29,.17,.23-.07,.03,0-.07,.02-.13,.05-.19,.07-.15,.05-.3,.08-.45,.12-.26,.06,.05-.01,.09,0-.08-.01-.23,.02-.31,.02-.14,0-.27,0-.41-.01-.34,0,.25,.06,.04,0-.07-.02-.13-.03-.2-.04-.11-.03-.33-.15-.44-.14,.04,0,.31,.16,.08,.03-.09-.05-.18-.09-.27-.15-.04-.02-.14-.11-.17-.11,.12,.01,.2,.17,.07,.05-.1-.1-.2-.2-.3-.3-.14-.15,.2,.31,.03,.04-.03-.05-.07-.11-.1-.16s-.06-.11-.09-.17c-.02-.04-.04-.08-.06-.13-.05-.1-.03-.06,.06,.14,.02-.03-.1-.31-.12-.36-.02-.06-.03-.12-.04-.18-.09-.31,.02,.28,0,.07,0-.14-.02-.28-.02-.42,0-.06,0-.13,.01-.19,.01-.29-.08,.33,0,.03,.03-.12,.07-.24,.1-.36,.07-.26-.02,.09-.05,.1,.02,0,.09-.18,.11-.21,.03-.05,.07-.11,.1-.16,.1-.17-.25,.26-.03,.04,.03-.03,.33-.35,.35-.33s-.32,.2-.07,.06c.06-.03,.11-.07,.16-.1s.11-.06,.17-.09c.25-.14-.08,.05-.09,.04,0,0,.38-.12,.42-.12,.25-.06,.06,.07-.07,0,.04,.02,.19-.02,.24-.02,.14,0,.29,.02,.43,.02-.32,.01-.23-.04-.11,0,.06,.02,.12,.03,.19,.05l.09,.03c.12,.04,.12,.04,0,0l-.09-.04s.09,.04,.13,.06c.07,.04,.14,.08,.21,.12,.23,.12-.16-.15-.03-.04,.11,.1,.21,.2,.31,.3,.09,.09,.07,.17-.05-.08,.03,.05,.08,.11,.11,.16,.08,.12,.14,.25,.21,.38,.09,.18-.09-.28-.04-.09,.03,.09,.06,.18,.08,.28,.02,.06,.03,.13,.04,.19,.05,.2-.01-.39,0-.06,0,.13,0,.26,0,.38,0,.27,0-.1,.02-.11-.02,0-.05,.21-.05,.25-.02,.07-.05,.15-.07,.22-.04,.1-.02,.07,.04-.09-.02,.05-.05,.1-.08,.16-.04,.07-.08,.13-.12,.2l-.03,.05c-.1,.14-.09,.13,.02-.03-.03,.1-.2,.2-.27,.28-.16,.16,.1-.08,.12-.09-.04,.01-.09,.06-.13,.09-.05,.03-.11,.06-.17,.1-.21,.13,.03-.02,.12-.04-.12,.03-.24,.09-.36,.12-.17,.04-.41,0,.02,.01-.22,0-.48-.01-.7,0,.36-.02,.28,.05,.13,.02-.05-.01-.1-.02-.15-.03-.12-.03-.23-.06-.34-.09-.05-.02-.1-.04-.15-.05-.22-.07,.13,.05,.14,.06-.1-.08-.24-.12-.35-.18-.06-.03-.38-.28-.17-.1s-.09-.09-.14-.13c-.07-.07-.14-.15-.21-.22-.16-.17,.09,.11,.09,.12-.02-.06-.09-.13-.12-.19-.03-.04-.05-.09-.07-.13-.14-.24,.11,.33,.03,.08-.04-.12-.07-.25-.1-.37-.06-.23,.03,.13,.02,.16,.02-.07-.01-.18-.01-.26,0-.07,.01-.14,.01-.21,0-.18-.08,.36,0,.11,.03-.12,.11-.28,.12-.4-.02,.27-.12,.25-.03,.09,.03-.06,.07-.12,.1-.18s.09-.12,.11-.18c.07-.16-.22,.26-.06,.07,.1-.11,.19-.21,.29-.31,.05-.05,.11-.09,.16-.14,.12-.13-.28,.19-.06,.05,.13-.09,.26-.17,.4-.25,.05-.03,.1-.05,.15-.08,.13-.07-.36,.12-.04,.02,.14-.04,.27-.08,.41-.12,.07-.02,.26-.03,0,0-.28,.02,.03,0,.09,0s.11,0,.17,0c.07,0,.36,.05,.09,0s.18,.05,.25,.07,.22,.11,.02,0c-.25-.13,.09,.05,.13,.07,.69,.38,1.67,.19,2.05-.54s.19-1.65-.54-2.05h0Z"/>
    <path d="M589,229.63s-.03-.02-.05-.03c0,0-.89-.56-2.28-.43-1.08,.1-38,8.04-87.99,18.91-.21,.07-1.73,.58-2.32,2.14-.38,1-.18,1.9-.09,2.23,3.45,15.85,6.89,31.71,10.34,47.56,.09,.1,.17,.21,.26,.31,7.19,29.52,37.38,45.83,62.57,37.77,21.34-6.83,35.93-30.16,32.36-55.18-.01-.09-.03-.18-.05-.27l-11.45-51.18c-.17-.76-.64-1.41-1.28-1.83Z"/>
    <path class="cls-1" d="M580.54,243.18c-2.18-.45-4.55,.3-6,2.02-1.53,1.82-1.77,4.23-.67,6.33s3.33,3.32,5.64,2.96c2.18-.34,4.15-2.22,4.53-4.41s-.82-4.46-2.89-5.42c-1.04-.48-2.12-.66-3.26-.46-.46,.08-.93,.24-1.33,.48-.7,.42-.95,1.41-.96,2.18-.04,2.38,2.25,4.47,4.62,3.99,2.13-.44,3.33-2.88,2.85-4.89-.66-2.75-4.04-3.33-6.21-2.05-2.52,1.5-2.88,4.75-2.17,7.34,.21,.76,1.07,1.3,1.85,1.05s1.27-1.03,1.05-1.85c-.05-.17-.09-.34-.13-.51-.02-.09-.1-.58-.06-.25-.04-.35-.06-.7-.05-1.05,0-.09,.01-.17,.01-.26,0-.03,.02-.24,0-.06-.02,.2,.01-.07,.02-.12,.02-.08,.03-.17,.05-.25,.04-.15,.08-.29,.13-.43,.08-.27,.02-.06,0,0,.04-.1,.09-.19,.14-.29,.04-.08,.09-.15,.13-.22,.03-.04,.18-.26,.06-.1-.11,.14,.13-.14,.18-.18,.05-.05,.11-.09,.16-.15-.2,.21-.13,.09-.04,.04,.14-.08,.3-.16,.43-.25,.14-.1-.11,.04-.11,.04,.04-.03,.15-.06,.21-.07,.14-.05,.28-.07,.42-.11,.23-.06-.06-.02-.08,0,.01-.02,.21-.01,.21-.01,.05,0,.11,0,.16,0,.3,0,.02-.05-.03-.02,.06-.04,.34,.08,.4,.1,.23,.05-.07-.04-.07-.04,.02,0,.19,.1,.18,.1,.04,.03,.09,.06,.13,.08,.16,.07-.16-.19-.06-.04,.03,.05,.1,.11,.15,.15,.11,.09-.16-.28-.04-.04,.01,.02,.09,.16,.09,.16-.03,0-.11-.36-.05-.1,.02,.09,.04,.39,.06,.16,.02-.26,0,.1,0,.17,0,.06,0,.12,0,.19,0,.3,.06-.23,0-.07-.04,.12-.06,.25-.1,.36-.1,.34,.12-.18-.02,.03-.02,.03-.2,.31-.2,.32-.02-.02,.25-.27,.06-.08-.05,.05-.11,.11-.16,.16-.24,.24,.19-.09-.02,.02-.05,.03-.11,.06-.16,.09-.23,.14,.09-.06,.1-.04,0,0-.19,.06-.18,.05-.23,.08,.11-.08,.11,0,0,0-.14,0-.16,0-.34-.02,.04,.02,.04,.02,0,0-.17-.04-.2-.05-.29-.05,.16,.11,.03,.02-.06-.04-.12-.07-.18-.1-.19-.1-.13-.02,0,.03-.13-.05-.23-.24-.34-.32-.15-.12,.12,.23,.04,.06-.03-.07-.1-.15-.14-.22-.02-.03-.1-.17-.1-.18,0,.02,.1,.3,.03,.07-.02-.07-.04-.13-.06-.2-.01-.05-.02-.1-.03-.15-.01-.08-.01-.07,0,.05v.1c0-.05,0-.1,0-.15-.01-.34-.01,.05-.03,.05-.07-.02,.27-.7,.04-.22l-.54,.54,.09-.05c.15-.07,.12-.06-.07,.03,.02-.04,.25-.08,.29-.09,.07-.02,.13-.03,.2-.05,.33-.08-.34,0,0,0,.17,0,.34,0,.51,0,.35,.01-.33-.09,0,0,.1,.03,.2,.04,.3,.07s.2,.06,.3,.09c.17,.05,.08-.04-.07-.03,.13,0,.39,.2,.5,.27,.05,.03,.19,.09,.22,.14l-.14-.11c.05,.04,.11,.09,.16,.13,.11,.09,.41,.31,.43,.45-.02-.12-.15-.21-.05-.06,.05,.09,.11,.17,.16,.26,.04,.07,.07,.16,.12,.23,.11,.16-.1-.34-.02-.03,.03,.11,.17,.38,.13,.5l-.03-.18c0,.08,.01,.16,.01,.24,0,.04-.01,.5,0,.27s-.03,.12-.03,.14c-.03,.11-.06,.22-.09,.34-.02,.07-.05,.15-.08,.22,.14-.35-.02,0-.05,.06-.09,.17-.2,.34-.32,.49,.22-.29-.03,.01-.07,.06-.08,.09-.16,.17-.25,.25-.05,.04-.36,.27-.06,.07-.06,.04-.13,.09-.19,.13-.1,.06-.2,.12-.3,.18,0,0-.35,.18-.14,.08s-.13,.05-.15,.05c-.11,.04-.22,.07-.34,.09-.08,.02-.15,.03-.23,.05,.4-.08-.09,0-.18,0-.1,0-.2-.01-.29-.02-.23,0,.35,.09,0,0-.18-.05-.36-.1-.53-.16,.36,.12,.03,0-.05-.03-.08-.04-.16-.09-.24-.14s-.15-.1-.23-.15c-.24-.16,.18,.19-.09-.08-.14-.15-.29-.29-.43-.44-.18-.2,0,0,.03,.04-.06-.09-.13-.18-.19-.28-.1-.16-.18-.33-.27-.5,.17,.34,0,.02-.02-.06-.04-.11-.07-.21-.1-.32s-.05-.22-.07-.33c-.06-.3,0,.05,0,.07-.09-.13-.01-.52,0-.67,0-.14-.06-.16-.01,.06-.02-.08,.05-.25,.07-.33,.02-.09,.06-.18,.08-.27,.1-.36-.1,.15,.04-.11,.11-.2,.22-.38,.34-.57,.2-.31-.22,.21,.04-.05,.08-.08,.15-.17,.23-.24s.17-.15,.25-.23c.22-.21-.23,.14,.05-.04,.19-.12,.38-.25,.58-.35,.1-.05,.2-.1,.31-.15-.35,.16,0,.01,.06-.01,.22-.07,.43-.12,.65-.17,.37-.08-.33,0,.05,0,.11,0,.22-.01,.34-.01s.22,.01,.34,.01c.17,.02,.15,.01-.06-.01,.07,.01,.15,.03,.22,.04,.77,.16,1.66-.22,1.85-1.05,.17-.75-.23-1.68-1.05-1.85h0Z"/>
    <path class="cls-1" d="M579.24,248.33c.17,.03,.2,.11-.15-.09,.11,.06,.09,.11-.19-.15,.16,.15-.22-.31-.13-.17s-.15-.42-.09-.2-.01-.39-.03-.22c0,.04,0,.1,0,.14-.05-.32,.07-.37,.03-.23-.02,.07-.04,.13-.06,.2-.04,.17,.19-.37,.07-.16-.02,.03-.04,.07-.06,.11-.12,.22,.27-.28,.09-.11-.02,.02-.06,.06-.08,.08,.18-.24,.28-.2,.11-.1-.05,.03-.1,.05-.15,.07,.3-.19,.23-.09,.09-.04-.09,.03-.18,.06-.28,.09-.73,.23-1.42,.45-2.02,.94s-.92,1.21-.97,1.98c-.08,1.31,.86,2.58,1.97,3.18,1.28,.69,2.77,.57,3.97-.25s2.05-2.11,2.69-3.44c.34-.7,.22-1.65-.54-2.05-.67-.36-1.69-.22-2.05,.54-.24,.49-.49,.98-.8,1.44-.07,.11-.14,.21-.22,.31-.17,.24,.19-.23,.06-.07-.04,.05-.09,.11-.13,.16-.08,.09-.16,.18-.25,.27-.1,.1-.25,.19-.33,.3,.01-.02,.31-.22,.11-.09-.06,.04-.11,.08-.16,.11-.1,.06-.21,.12-.31,.17-.21,.11,.13-.05,.14-.05-.06,.04-.16,.06-.23,.08-.05,.02-.1,.03-.16,.04-.19,.05-.23-.02,.12,0-.04,0-.33,0-.33,0,0-.02,.42,.08,.2,.02-.04-.01-.09-.02-.13-.03-.05-.01-.11-.03-.16-.05-.14-.04-.17-.14,.14,.06-.09-.06-.2-.1-.3-.17-.12-.08-.22-.22,.08,.08-.03-.03-.07-.06-.1-.09-.08-.07-.14-.14-.21-.21-.1-.1-.11-.23,.09,.12-.02-.04-.05-.07-.07-.11-.04-.07-.22-.44-.1-.16s0-.03-.02-.11c-.07-.24,.02,.37,.02,.19,0-.05,0-.1,0-.15,0-.21-.08,.46,0,.08,.04-.16,.14-.1-.07,.17,.01-.02,.09-.16,.1-.16,.03,.03-.28,.29-.11,.15,.03-.03,.24-.22,.03-.04s.12-.05,.19-.09c.26-.13-.29,.1-.1,.04,.06-.02,.13-.05,.19-.07,.13-.04,.26-.08,.4-.12,.64-.19,1.33-.43,1.79-.93,.51-.56,.85-1.33,.81-2.1-.05-.92-.64-1.88-1.61-2.04-.41-.07-.78-.07-1.16,.15-.31,.18-.61,.54-.69,.9-.16,.72,.22,1.71,1.05,1.85h0Z"/>
    <path d="M423.24,406.36c.81-12.29,5.94-25.35,17.6-30.91,5.08-2.42,10.98-3.05,16.3-1.22s8.78,5.8,11.41,10.4c3.27,5.7,5.03,12.11,6.67,18.55,.95,3.74,6.74,2.15,5.79-1.6-3.08-12.06-7.5-26.58-19.85-32.16-6.48-2.93-13.96-2.88-20.57-.34s-12.39,7.39-16.3,13.58c-4.46,7.07-6.51,15.42-7.05,23.7-.11,1.62,1.46,3,3,3,1.71,0,2.89-1.38,3-3h0Z"/>
  </g>
</svg>